Patient4_TMGait_0pt6_02_left_20_GRF.mot
version=1
nRows=26
nColumns=19
inDegrees=no
endheader
time	F1x	F1y	F1z	M1x	M1y	M1z	F2x	F2y	F2z	M2x	M2y	M2z	EC1x	EC1y	EC1z	EC2x	EC2y	EC2z
24.57	-7.8356	-1.7095	4.3412	-0.22503	-5.17	-0.43344	-33.31	755.0144	-51.7502	308.1148	70.8374	835.5268	-0.0592	0.0182	-0.0073	-0.0462	0.0165	0.9585
24.5821	-5.3628	-0.20647	2.9994	-0.49913	-3.5531	0.88746	-34.0076	749.6701	-51.1723	305.7912	69.8977	826.4013	-0.0592	0.0182	-0.0073	-0.0462	0.0165	0.9585
24.5941	-3.2612	1.1053	1.8567	-0.74	-2.1939	2.0163	-34.1725	744.7837	-50.3326	303.5386	68.4955	817.5067	-0.0592	0.0182	-0.0073	-0.0462	0.0165	0.9585
24.6062	-1.6508	2.1445	0.98247	-0.93817	-1.1654	2.8938	-33.771	740.9589	-49.3372	301.5942	66.7548	809.6366	-0.0592	0.0182	-0.0073	-0.0462	0.0165	0.9585
24.6183	-0.55002	2.9019	0.38192	-1.0914	-0.47076	3.5248	-32.8567	738.5778	-48.3263	300.1157	64.8537	803.2696	-0.0592	0.0182	-0.0073	-0.0462	0.0165	0.9585
24.6304	0.11895	3.407	0.0173	-1.2025	-0.061816	3.9241	-31.5079	737.7537	-47.4659	299.1556	63.0031	798.5476	-0.0592	0.0182	-0.0073	-0.0462	0.0165	0.9585
24.6424	0.44052	3.7042	-0.16019	-1.2738	0.11857	4.148	-29.79	738.336	-46.8852	298.6632	61.3607	795.3099	-0.0592	0.0182	-0.0073	-0.0462	0.0165	0.9585
24.6545	0.53017	3.8081	-0.21109	-1.2994	0.14339	4.1987	-27.7543	740.0014	-46.6734	298.5181	60.0261	793.1997	-0.0592	0.0182	-0.0073	-0.0462	0.0165	0.9585
24.6666	0.45065	3.7204	-0.17575	-1.2684	0.059509	4.0731	-25.4537	742.3108	-46.8595	298.5584	59.0336	791.7263	-0.0592	0.0182	-0.0073	-0.0462	0.0165	0.9585
24.6786	0.28717	3.4087	-0.09317	-1.1608	-0.083316	3.7059	-22.9686	744.7969	-47.4109	298.616	58.3625	790.3916	-0.0592	0.0182	-0.0073	-0.0462	0.0165	0.9585
24.6907	0.074455	2.8209	0.016842	-0.95	-0.26246	3.0222	-20.3794	747.0404	-48.2692	298.5447	57.971	788.7611	-0.0592	0.0182	-0.0073	-0.0462	0.0165	0.9585
24.7028	-0.14075	1.8871	0.13593	-0.60646	-0.45364	1.9166	-17.7833	748.7232	-49.3445	298.2431	57.7937	786.513	-0.0592	0.0182	-0.0073	-0.0462	0.0165	0.9585
24.7149	-0.33337	0.53633	0.2461	-0.10204	-0.63041	0.30823	-15.2681	749.672	-50.5543	297.6699	57.7701	783.4823	-0.0592	0.0182	-0.0073	-0.0462	0.0165	0.9585
24.7269	-0.44639	-1.2713	0.32006	0.57681	-0.74333	-1.8592	-12.9023	749.8579	-51.8236	296.8375	57.843	779.65	-0.0592	0.0182	-0.0073	-0.0462	0.0165	0.9585
24.739	-0.43926	-3.4927	0.3281	1.4101	-0.73417	-4.5317	-10.7526	749.3341	-53.1026	295.7867	57.979	775.0869	-0.0592	0.0182	-0.0073	-0.0462	0.0165	0.9585
24.7511	-0.22661	-5.9223	0.22498	2.315	-0.51638	-7.4637	-8.8295	748.1905	-54.3645	294.5661	58.1516	769.8917	-0.0592	0.0182	-0.0073	-0.0462	0.0165	0.9585
24.7631	0.2647	-8.1101	-0.041595	3.1172	0.0021035	-10.1036	-7.1039	746.4776	-55.614	293.2019	58.3488	764.1162	-0.0592	0.0182	-0.0073	-0.0462	0.0165	0.9585
24.7752	1.1284	-9.278	-0.54178	3.5213	0.93859	-11.5156	-5.4802	744.1146	-56.8759	291.6661	58.5623	757.6667	-0.0592	0.0182	-0.0073	-0.0462	0.0165	0.9585
24.7873	2.4476	-8.2232	-1.3445	3.0798	2.4096	-10.2542	-3.8282	740.8716	-58.1637	289.8696	58.7659	750.302	-0.0592	0.0182	-0.0073	-0.0462	0.0165	0.9585
24.7994	4.2655	-3.2954	-2.5117	1.1837	4.5028	-4.3454	-1.997	736.352	-59.4452	287.663	58.8864	741.615	-0.0592	0.0182	-0.0073	-0.0462	0.0165	0.9585
24.8114	6.5096	7.5526	-4.051	-2.9182	7.1995	8.6689	0.12116	730.0441	-60.6076	284.8553	58.7871	731.1077	-0.0592	0.0182	-0.0073	-0.0462	0.0165	0.9585
24.8235	8.9623	26.5613	-5.8804	-10.0442	10.3093	31.5038	2.5728	721.3483	-61.4755	281.227	58.2968	718.2236	-0.0592	0.0182	-0.0073	-0.0462	0.0165	0.9585
24.8356	11.156	55.7639	-7.76	-20.9255	13.3615	66.6279	5.306	709.6246	-61.8068	276.5428	57.2214	702.4196	-0.0592	0.0182	-0.0073	-0.0462	0.0165	0.9585
24.8476	12.3121	96.2829	-9.2514	-35.9431	15.5218	115.4122	8.2046	694.2071	-61.3465	270.5522	55.3819	683.1631	-0.0592	0.0182	-0.0073	-0.0462	0.0165	0.9585
24.8597	11.2993	147.3812	-9.6651	-54.7743	15.5467	176.9999	11.1005	674.442	-59.8795	262.997	52.6535	659.9549	-0.0592	0.0182	-0.0073	-0.0462	0.0165	0.9585
24.8718	7.2697	205.7949	-8.2154	-76.1494	12.1791	247.4738	13.8181	649.7222	-57.2946	253.6265	49.0076	632.3376	-0.0592	0.0182	-0.0073	-0.0462	0.0165	0.9585
